# xmcd CD database file
#
# Track frame offsets:
#	150
#	24384
#	48047
#	68659
#	93475
#	118726
#	139940
#	156090
#	180442
#	198448
#
# Disc length: 2899 seconds
#
# Revision: 0
# Processed by: cddbd v1.5.2PL0 Copyright (c) Steve Scherf et al.
# Submitted via: CDex 1.51
#
DISCID=7e0b510a
DTITLE=Boney James - Seduction
DYEAR=1995
DGENRE=Jazz
TTITLE0=Camuflage
TTITLE1=Got it goin on
TTITLE2=Lights down low
TTITLE3=Seduction
TTITLE4=Washington bridge
TTITLE5=Without a Doubt
TTITLE6=Sara Smile
TTITLE7=Second nature
TTITLE8=Aint´t no sunshine
TTITLE9=Nice and slow
EXTD=YEAR: 1995
EXTT0=
EXTT1=
EXTT2=
EXTT3=
EXTT4=
EXTT5=
EXTT6=
EXTT7=
EXTT8=
EXTT9=
PLAYORDER=
